# 3ds Max Wavefront OBJ Exporter v0.97b - (c)2007 guruware
# File Created: 15.10.2015 11:09:12

mtllib 3d-model.mtl

#
# object Layer0_001
#

v  -49500.0000 11945.1426 -6000.0000
v  -52500.0000 9613.1738 -6000.0000
v  -52500.0000 10244.4551 -8999.9980
v  -55500.0000 8240.5742 -8999.9980
v  -55500.0000 8128.3027 -6000.0000
v  -58500.0000 8087.8369 -8999.9980
v  -58500.0000 8087.8369 -6000.0000
v  58500.0000 8087.8369 -3000.0000
v  55500.0000 8121.9360 -6000.0000
v  58500.0000 8087.8369 -6000.0000
v  55500.0000 8216.5430 -3000.0000
v  52499.9922 9373.1797 -6000.0000
v  52499.9922 9905.1357 -3000.0000
v  49499.9922 11338.2402 -6000.0000
v  49499.9922 12265.0332 -3000.0000
v  46500.0000 12787.2158 -6000.0000
v  46500.0000 13352.4893 -3000.0000
v  43500.0000 13352.4893 -6000.0000
v  43500.0000 12787.2158 -3000.0000
v  40499.9922 12265.0332 -6000.0000
v  40499.9922 11338.2402 -3000.0000
v  37500.0000 9905.1357 -6000.0000
v  37500.0000 9373.1797 -3000.0000
v  34500.0000 8216.5430 -6000.0000
v  34500.0000 8121.9360 -3000.0000
v  31500.0000 8087.8369 -6000.0000
v  31500.0000 8122.3760 -3000.0000
v  28500.0000 8087.8369 -6000.0000
v  28500.0000 8218.2021 -3000.0000
v  25500.0000 8087.8369 -6000.0000
v  25500.0000 8117.3154 -3000.0000
v  22500.0000 8087.8369 -6000.0000
v  22500.0000 8684.0781 -3000.0000
v  19500.0000 8400.4092 -6000.0000
v  19500.0000 10789.8770 -3000.0000
v  16500.0000 9418.0732 -6000.0000
v  16500.0000 11943.4063 -3000.0000
v  13500.0000 9620.2725 -6000.0000
v  13500.0000 10761.7305 -3000.0000
v  10500.0000 7894.0830 -6000.0000
v  10500.0000 6764.8906 -3000.0000
v  7500.0000 5418.0762 -6000.0000
v  7500.0000 3584.0430 -3000.0000
v  4500.0000 3860.5010 -6000.0000
v  4500.0000 2415.0615 -3000.0000
v  1500.0000 2932.2070 -6000.0000
v  1500.0000 1058.9834 -3000.0000
v  -1500.0000 2781.4609 -6000.0000
v  -1500.0000 61.3076 -3000.0000
v  -4500.0039 4504.4849 -6000.0000
v  -4500.0039 1594.2705 -3000.0000
v  -7500.0000 7520.8188 -6000.0000
v  -7500.0000 4450.8979 -3000.0000
v  -10500.0000 9884.6465 -6000.0000
v  -10500.0000 7212.5298 -3000.0000
v  -13500.0000 11030.5947 -6000.0000
v  -13500.0000 9949.8018 -3000.0000
v  -16500.0000 10947.6992 -6000.0000
v  -16500.0000 10822.8047 -3000.0000
v  -19500.0000 10646.8223 -6000.0000
v  -19500.0000 10423.0381 -3000.0000
v  -22500.0000 10333.6152 -6000.0000
v  -22500.0000 10480.1914 -3000.0000
v  -25500.0000 10332.1201 -6000.0000
v  -25500.0000 11397.8174 -3000.0000
v  -28500.0000 11209.2490 -6000.0000
v  -28500.0000 12570.8877 -3000.0000
v  -31500.0020 12072.7432 -6000.0000
v  -31500.0020 13110.1406 -3000.0000
v  -34500.0000 11188.6133 -6000.0000
v  -34500.0000 12072.7432 -3000.0000
v  -37500.0000 9354.4775 -6000.0000
v  -37500.0000 10017.8584 -3000.0000
v  -40500.0000 9668.6230 -6000.0000
v  -40500.0000 9421.2754 -3000.0000
v  -43500.0000 12031.6514 -6000.0000
v  -43500.0000 10834.6650 -3000.0000
v  -46500.0000 13067.9023 -6000.0000
v  -46500.0000 11108.3936 -3000.0000
v  -49500.0000 9809.5527 -3000.0000
v  -52500.0000 8434.5557 -3000.0000
v  -55500.0000 8087.8369 -3000.0000
v  -58500.0000 8087.8369 -3000.0000
v  58500.0000 8087.8369 -0.0000
v  55500.0000 8121.9360 -0.0000
v  52499.9922 9373.1797 -0.0000
v  49499.9922 11338.2402 -0.0000
v  46500.0000 12265.0332 -0.0000
v  43500.0000 11371.6299 -0.0000
v  40499.9922 9751.0537 -0.0000
v  37500.0000 8413.3936 -0.0000
v  34500.0000 8383.7705 -0.0000
v  31500.0000 9389.7520 -0.0000
v  28500.0000 9885.2109 -0.0000
v  25500.0000 9270.8281 -0.0000
v  22500.0000 10821.1885 -0.0000
v  19500.0000 14742.8701 -0.0000
v  16500.0000 16842.2031 -0.0000
v  13500.0000 14896.7148 -0.0000
v  10500.0000 9404.1475 -0.0000
v  7500.0000 4642.5947 -0.0000
v  4500.0000 3384.8643 -0.0000
v  1500.0000 1433.8340 -0.0000
v  -1500.0000 0.0000 -0.0000
v  -4500.0039 991.2998 -0.0000
v  -7500.0000 3385.7119 -0.0000
v  -10500.0000 6544.8379 -0.0000
v  -13500.0000 9877.1377 -0.0000
v  -16500.0000 11503.2910 -0.0000
v  -19500.0000 12300.3779 -0.0000
v  -22500.0000 12757.9307 -0.0000
v  -25500.0000 13396.4980 -0.0000
v  -28500.0000 13406.6777 -0.0000
v  -31500.0020 12570.8877 -0.0000
v  -34500.0000 11384.9922 -0.0000
v  -37500.0000 10347.2266 -0.0000
v  -40500.0000 10305.1123 -0.0000
v  -43500.0000 10935.9902 -0.0000
v  -46500.0000 10425.3203 -0.0000
v  -49500.0000 8992.2412 -0.0000
v  -52500.0000 8110.7563 -0.0000
v  -55500.0000 8087.8369 -0.0000
v  -58500.0000 8087.8369 -0.0000
v  58500.0000 8087.8369 3000.0000
v  55500.0000 8087.8369 3000.0000
v  52499.9922 8380.0039 3000.0000
v  49499.9922 9373.1797 3000.0000
v  46500.0000 10191.2246 3000.0000
v  43500.0000 10631.7852 3000.0000
v  40499.9922 10159.4990 3000.0000
v  37500.0000 9380.9814 3000.0000
v  34500.0000 9675.8418 3000.0000
v  31500.0000 11336.7920 3000.0000
v  28500.0000 12090.7773 3000.0000
v  25500.0000 11168.8682 3000.0000
v  22500.0000 12597.3369 3000.0000
v  19500.0000 16437.7480 3000.0000
v  16500.0000 18985.1445 3000.0000
v  13500.0000 16880.5000 3000.0000
v  10500.0000 11599.1719 3000.0000
v  7500.0000 6594.5664 3000.0000
v  4500.0000 4441.1089 3000.0000
v  1500.0000 2404.8945 3000.0000
v  -1500.0000 1530.9268 3000.0000
v  -4500.0039 2701.8691 3000.0000
v  -7500.0000 3792.6084 3000.0000
v  -10500.0000 6468.4458 3000.0000
v  -13500.0000 9714.6895 3000.0000
v  -16500.0000 12461.0430 3000.0000
v  -19500.0000 14430.8467 3000.0000
v  -22500.0000 15633.3809 3000.0000
v  -25500.0000 15405.9775 3000.0000
v  -28500.0000 14009.8477 3000.0000
v  -31500.0020 11406.7012 3000.0000
v  -34500.0000 10418.2021 3000.0000
v  -37500.0000 10551.2998 3000.0000
v  -40500.0000 11246.5059 3000.0000
v  -43500.0000 11626.4531 3000.0000
v  -46500.0000 10895.5234 3000.0000
v  -49500.0000 9309.3271 3000.0000
v  -52500.0000 8174.3457 3000.0000
v  -55500.0000 8087.8369 3000.0000
v  -58500.0000 8087.8369 3000.0000
v  58500.0000 8087.8369 6000.0000
v  55500.0000 8087.8369 6000.0000
v  52499.9922 8087.8369 6000.0000
v  49499.9922 8155.3262 6000.0000
v  46500.0000 9475.1484 6000.0000
v  43500.0000 11304.7246 6000.0000
v  40499.9922 12178.1396 6000.0000
v  37500.0000 11400.9902 6000.0000
v  34500.0000 11182.1123 6000.0000
v  31500.0000 12161.5400 6000.0000
v  28500.0000 12938.0176 6000.0000
v  25500.0000 11693.3340 6000.0000
v  22500.0000 11854.4072 6000.0000
v  19500.0000 14444.0908 6000.0000
v  16500.0000 16615.8789 6000.0000
v  13500.0000 14914.5117 6000.0000
v  10500.0000 10751.3398 6000.0000
v  7500.0000 6479.3730 6000.0000
v  4500.0000 3792.7451 6000.0000
v  1500.0000 2291.1416 6000.0000
v  -1500.0000 2482.3428 6000.0000
v  -4500.0039 3730.9570 6000.0000
v  -7500.0000 4800.9785 6000.0000
v  -10500.0000 6254.1592 6000.0000
v  -13500.0000 9221.7168 6000.0000
v  -16500.0000 12724.5615 6000.0000
v  -19500.0000 15316.5273 6000.0000
v  -22500.0000 16274.5586 6000.0000
v  -25500.0000 15640.3975 6000.0000
v  -28500.0000 13358.7109 6000.0000
v  -31500.0020 10238.8906 6000.0000
v  -34500.0000 9607.0430 6000.0000
v  -37500.0000 10895.5234 6000.0000
v  -40500.0000 11626.4531 6000.0000
v  -43500.0000 11246.5059 6000.0000
v  -46500.0000 10272.5830 6000.0000
v  -49500.0000 8951.7754 6000.0000
v  -52500.0000 8110.7563 6000.0000
v  -55500.0000 8087.8369 6000.0000
v  -58500.0000 8087.8369 6000.0000
v  58500.0000 8087.8369 9000.0000
v  55500.0000 8087.8369 9000.0000
v  52499.9922 8087.8369 9000.0000
v  49499.9922 8213.8652 9000.0000
v  46500.0000 9867.3330 9000.0000
v  43500.0000 12178.1396 9000.0000
v  40499.9922 13242.9746 9000.0000
v  37500.0000 12308.5049 9000.0000
v  34500.0000 11688.9639 9000.0000
v  31500.0000 12175.2383 9000.0000
v  28500.0000 12800.4834 9000.0000
v  25500.0000 11537.6309 9000.0000
v  22500.0000 9846.5322 9000.0000
v  19500.0000 10442.9512 9000.0000
v  16500.0000 11724.5654 9000.0000
v  13500.0000 10789.8770 9000.0000
v  10500.0000 8538.6201 9000.0000
v  7500.0000 5764.3154 9000.0000
v  4500.0000 2747.0518 9000.0000
v  1500.0000 1356.6768 9000.0000
v  -1500.0000 2635.6025 9000.0000
v  -4500.0039 4573.0039 9000.0000
v  -7500.0000 5468.6318 9000.0000
v  -10500.0000 5429.0684 9000.0000
v  -13500.0000 8283.7305 9000.0000
v  -16500.0000 12545.6641 9000.0000
v  -19500.0000 15326.3994 9000.0000
v  -22500.0000 15953.4375 9000.0000
v  -25500.0000 15021.5586 9000.0000
v  -28500.0000 12264.1973 9000.0000
v  -31500.0020 9278.0273 9000.0000
v  -34500.0000 9023.4814 9000.0000
v  -37500.0000 10272.5830 9000.0000
v  -40500.0000 10895.5234 9000.0000
v  -43500.0000 10272.5830 9000.0000
v  -46500.0000 9121.0527 9000.0000
v  -49500.0000 8284.2158 9000.0000
v  -52500.0000 8087.8369 9000.0000
v  -55500.0000 8087.8369 9000.0000
v  -58500.0000 8087.8369 9000.0000
v  58500.0000 8087.8369 12000.0000
v  55500.0000 8087.8369 12000.0000
v  52499.9922 8087.8369 12000.0000
v  49499.9922 8121.2266 12000.0000
v  46500.0000 9346.4424 12000.0000
v  43500.0000 11270.6250 12000.0000
v  40499.9922 12178.1396 12000.0000
v  37500.0000 11305.1641 12000.0000
v  34500.0000 10643.2979 12000.0000
v  31500.0000 11222.7969 12000.0000
v  28500.0000 11836.5400 12000.0000
v  25500.0000 10760.2637 12000.0000
v  22500.0000 8907.4004 12000.0000
v  19500.0000 7966.0786 12000.0000
v  16500.0000 8315.5508 12000.0000
v  13500.0000 8159.6543 12000.0000
v  10500.0000 8044.2388 12000.0000
v  7500.0000 6444.4521 12000.0000
v  4500.0000 3932.0098 12000.0000
v  1500.0000 2747.0518 12000.0000
v  -1500.0000 3912.2734 12000.0000
v  -4500.0039 5700.5171 12000.0000
v  -7500.0000 6162.9604 12000.0000
v  -10500.0000 5702.5386 12000.0000
v  -13500.0000 7530.3130 12000.0000
v  -16500.0000 11415.5020 12000.0000
v  -19500.0000 14245.1221 12000.0000
v  -22500.0000 14989.0293 12000.0000
v  -25500.0000 14108.6338 12000.0000
v  -28500.0000 11636.0908 12000.0000
v  -31500.0020 9132.7080 12000.0000
v  -34500.0000 8355.9219 12000.0000
v  -37500.0000 8951.7754 12000.0000
v  -40500.0000 9309.3271 12000.0000
v  -43500.0000 8951.7754 12000.0000
v  -46500.0000 8284.2158 12000.0000
v  -49500.0000 8087.8369 12000.0000
v  -52500.0000 8087.8369 12000.0000
v  -55500.0000 8087.8369 12000.0000
v  -58500.0000 8087.8369 12000.0000
v  58500.0000 8087.8369 15000.0000
v  55500.0000 8087.8369 15000.0000
v  52499.9922 8087.8369 15000.0000
v  49499.9922 8087.8369 15000.0000
v  46500.0000 8373.9258 15000.0000
v  43500.0000 9346.4424 15000.0000
v  40499.9922 9867.3330 15000.0000
v  37500.0000 9346.4424 15000.0000
v  34500.0000 8669.8594 15000.0000
v  31500.0000 9346.3955 15000.0000
v  28500.0000 9737.8262 15000.0000
v  25500.0000 9120.0693 15000.0000
v  22500.0000 8193.0293 15000.0000
v  19500.0000 8044.4800 15000.0000
v  16500.0000 8087.8369 15000.0000
v  13500.0000 8087.8369 15000.0000
v  10500.0000 8087.8369 15000.0000
v  7500.0000 7714.2847 15000.0000
v  4500.0000 6444.4521 15000.0000
v  1500.0000 5764.3154 15000.0000
v  -1500.0000 6444.4521 15000.0000
v  -4500.0039 7545.1836 15000.0000
v  -7500.0000 7343.9019 15000.0000
v  -10500.0000 7036.0146 15000.0000
v  -13500.0000 7640.4399 15000.0000
v  -16500.0000 9855.8398 15000.0000
v  -19500.0000 11625.0674 15000.0000
v  -22500.0000 12141.4160 15000.0000
v  -25500.0000 11636.0908 15000.0000
v  -28500.0000 10176.2871 15000.0000
v  -31500.0020 8803.9453 15000.0000
v  -34500.0000 8106.8345 15000.0000
v  -37500.0000 8110.7563 15000.0000
v  -40500.0000 8174.3457 15000.0000
v  -43500.0000 8110.7563 15000.0000
v  -46500.0000 8087.8369 15000.0000
v  -49500.0000 8087.8369 15000.0000
v  -52500.0000 8087.8369 15000.0000
v  -55500.0000 8087.8369 15000.0000
v  -58500.0000 8087.8369 15000.0000
v  58500.0000 8087.8369 18000.0000
v  55500.0000 8087.8369 18000.0000
v  52499.9922 8087.8369 18000.0000
v  49499.9922 8087.8369 18000.0000
v  46500.0000 8087.8369 18000.0000
v  43500.0000 8121.2266 18000.0000
v  40499.9922 8213.8652 18000.0000
v  37500.0000 8121.2266 18000.0000
v  34500.0000 8087.8369 18000.0000
v  31500.0000 8122.3760 18000.0000
v  28500.0000 8213.1416 18000.0000
v  25500.0000 8103.2764 18000.0000
v  22500.0000 8082.7764 18000.0000
v  19500.0000 8087.8369 18000.0000
v  16500.0000 8087.8369 18000.0000
v  13500.0000 8087.8369 18000.0000
v  10500.0000 8087.8369 18000.0000
v  7500.0000 8087.8369 18000.0000
v  4500.0000 8044.2388 18000.0000
v  1500.0000 7923.2788 18000.0000
v  -1500.0000 8044.2388 18000.0000
v  -4500.0039 8087.8369 18000.0000
v  -7500.0000 8068.1006 18000.0000
v  -10500.0000 8013.3438 18000.0000
v  -13500.0000 8068.1006 18000.0000
v  -16500.0000 8283.0049 18000.0000
v  -19500.0000 8926.2070 18000.0000
v  -22500.0000 9222.5781 18000.0000
v  -25500.0000 9132.7080 18000.0000
v  -28500.0000 8803.9453 18000.0000
v  -52500.0000 8087.8369 18000.0000
v  -55500.0000 8087.8369 18000.0000
v  -49500.0000 8087.8369 18000.0000
v  -46500.0000 8087.8369 18000.0000
v  -43500.0000 8087.8369 18000.0000
v  -40500.0000 8087.8369 18000.0000
v  -37500.0000 8087.8369 18000.0000
v  -34500.0000 8087.8369 18000.0000
v  -31500.0020 8250.6123 18000.0000
v  -58500.0000 8087.8369 18000.0000
v  -46500.0000 14335.4844 -8999.9980
v  -49500.0000 13044.9824 -8999.9980
v  -43500.0000 13044.9824 -8999.9980
v  -40500.0000 10244.4551 -8999.9980
v  -37500.0000 8519.2910 -8999.9980
v  -34500.0000 9314.0107 -8999.9980
v  -25500.0000 9466.3369 -8999.9980
v  -22500.0000 10615.7695 -8999.9980
v  -28500.0000 9391.9004 -8999.9980
v  -31500.0020 9821.4795 -8999.9980
v  -19500.0000 11298.9307 -8999.9980
v  -16500.0000 12218.5146 -8999.9980
v  -13500.0000 13004.6074 -8999.9980
v  -10500.0000 12257.5918 -8999.9980
v  -7500.0000 10496.8027 -8999.9980
v  -4500.0039 8108.7466 -8999.9980
v  -1500.0000 6092.7231 -8999.9980
v  1500.0000 5539.1401 -8999.9980
v  4500.0000 6570.0649 -8999.9980
v  7500.0000 9017.5469 -8999.9980
v  10500.0000 11056.6846 -8999.9980
v  13500.0000 11546.0762 -8999.9980
v  16500.0000 10766.2764 -8999.9980
v  19500.0000 9147.0020 -8999.9980
v  22500.0000 8115.9355 -8999.9980
v  25500.0000 8087.8369 -8999.9980
v  28500.0000 8087.8369 -8999.9980
v  31500.0000 8087.8369 -8999.9980
v  34500.0000 8121.9360 -8999.9980
v  37500.0000 9373.1797 -8999.9980
v  40499.9922 11338.2402 -8999.9980
v  43500.0000 12265.0332 -8999.9980
v  46500.0000 11338.2402 -8999.9980
v  49499.9922 9625.0254 -8999.9980
v  52499.9922 8380.0039 -8999.9980
v  55500.0000 8087.8369 -8999.9980
v  58500.0000 8087.8369 -8999.9980
v  -58500.0000 8087.8369 -12000.0000
v  -55500.0000 8128.3027 -12000.0000
v  -52500.0000 9613.1738 -12000.0000
v  -49500.0000 11945.1426 -12000.0000
v  -46500.0000 13044.9824 -12000.0000
v  -43500.0000 11945.1426 -12000.0000
v  -40500.0000 9613.1738 -12000.0000
v  -37500.0000 8128.3027 -12000.0000
v  -34500.0000 8120.3662 -12000.0000
v  -31500.0020 8210.6172 -12000.0000
v  -28500.0000 8141.0024 -12000.0000
v  -25500.0000 8865.6934 -12000.0000
v  -22500.0000 10054.8975 -12000.0000
v  -19500.0000 10710.3594 -12000.0000
v  -16500.0000 11951.3682 -12000.0000
v  -13500.0000 13124.8701 -12000.0000
v  -10500.0000 12734.8770 -12000.0000
v  -7500.0000 11239.1807 -12000.0000
v  -4500.0039 9964.8701 -12000.0000
v  -1500.0000 8762.8262 -12000.0000
v  1500.0000 8605.8008 -12000.0000
v  4500.0000 9287.4561 -12000.0000
v  7500.0000 11240.4043 -12000.0000
v  10500.0000 12387.5547 -12000.0000
v  13500.0000 12486.8203 -12000.0000
v  16500.0000 11529.9844 -12000.0000
v  19500.0000 9585.3516 -12000.0000
v  22500.0000 8193.8945 -12000.0000
v  25500.0000 8087.8369 -12000.0000
v  28500.0000 8087.8369 -12000.0000
v  31500.0000 8087.8369 -12000.0000
v  34500.0000 8087.8369 -12000.0000
v  37500.0000 8380.0039 -12000.0000
v  40499.9922 9373.1797 -12000.0000
v  43500.0000 9905.1357 -12000.0000
v  46500.0000 9373.1797 -12000.0000
v  49499.9922 8380.0039 -12000.0000
v  52499.9922 8087.8369 -12000.0000
v  55500.0000 8087.8369 -12000.0000
v  58500.0000 8087.8369 -12000.0000
v  -58500.0000 8087.8369 -15000.0000
v  -55500.0000 8087.8369 -15000.0000
v  -52500.0000 8434.5557 -15000.0000
v  -49500.0000 9613.1738 -15000.0000
v  -46500.0000 10244.4551 -15000.0000
v  -43500.0000 9613.1738 -15000.0000
v  -40500.0000 8434.5557 -15000.0000
v  -37500.0000 8087.8369 -15000.0000
v  -34500.0000 8087.8369 -15000.0000
v  -31500.0020 8087.8369 -15000.0000
v  -28500.0000 8087.8369 -15000.0000
v  -25500.0000 8264.6484 -15000.0000
v  -22500.0000 8865.6934 -15000.0000
v  -19500.0000 9212.6807 -15000.0000
v  -16500.0000 10132.2646 -15000.0000
v  -13500.0000 11254.5322 -15000.0000
v  -10500.0000 11334.6211 -15000.0000
v  -7500.0000 10537.4102 -15000.0000
v  -4500.0039 9890.0518 -15000.0000
v  -1500.0000 10047.1895 -15000.0000
v  1500.0000 10432.9238 -15000.0000
v  4500.0000 10296.6416 -15000.0000
v  7500.0000 10680.8438 -15000.0000
v  10500.0000 11372.8203 -15000.0000
v  13500.0000 11546.0762 -15000.0000
v  16500.0000 10766.2764 -15000.0000
v  19500.0000 9147.0020 -15000.0000
v  22500.0000 8115.9355 -15000.0000
v  25500.0000 8087.8369 -15000.0000
v  28500.0000 8087.8369 -15000.0000
v  31500.0000 8087.8369 -15000.0000
v  34500.0000 8087.8369 -15000.0000
v  37500.0000 8087.8369 -15000.0000
v  40499.9922 8121.9360 -15000.0000
v  43500.0000 8216.5430 -15000.0000
v  46500.0000 8121.9360 -15000.0000
v  49499.9922 8087.8369 -15000.0000
v  52499.9922 8087.8369 -15000.0000
v  55500.0000 8087.8369 -15000.0000
v  58500.0000 8087.8369 -15000.0000
v  -58500.0000 8087.8369 -18000.0000
v  -55500.0000 8087.8369 -18000.0000
v  -52500.0000 8087.8369 -18000.0000
v  -49500.0000 8128.3027 -18000.0000
v  -46500.0000 8240.5742 -18000.0000
v  -43500.0000 8128.3027 -18000.0000
v  -40500.0000 8087.8369 -18000.0000
v  -37500.0000 8087.8369 -18000.0000
v  -34500.0000 8087.8369 -18000.0000
v  -31500.0020 8087.8369 -18000.0000
v  -28500.0000 8087.8369 -18000.0000
v  -25500.0000 8087.8369 -18000.0000
v  -22500.0000 8108.4727 -18000.0000
v  -19500.0000 8165.7261 -18000.0000
v  -16500.0000 8380.4502 -18000.0000
v  -13500.0000 9053.1182 -18000.0000
v  -10500.0000 9423.4355 -18000.0000
v  -7500.0000 9048.5732 -18000.0000
v  -4500.0039 8909.1045 -18000.0000
v  -1500.0000 9621.6777 -18000.0000
v  1500.0000 10059.0254 -18000.0000
v  4500.0000 9621.6777 -18000.0000
v  7500.0000 9053.9795 -18000.0000
v  10500.0000 9284.8730 -18000.0000
v  13500.0000 9585.3516 -18000.0000
v  16500.0000 9147.0020 -18000.0000
v  19500.0000 8328.5918 -18000.0000
v  22500.0000 8087.8369 -18000.0000
v  25500.0000 8087.8369 -18000.0000
v  28500.0000 8087.8369 -18000.0000
v  31500.0000 8087.8369 -18000.0000
v  34500.0000 8087.8369 -18000.0000
v  37500.0000 8087.8369 -18000.0000
v  40499.9922 8087.8369 -18000.0000
v  43500.0000 8087.8369 -18000.0000
v  46500.0000 8087.8369 -18000.0000
v  49499.9922 8087.8369 -18000.0000
v  52499.9922 8087.8369 -18000.0000
v  55500.0000 8087.8369 -18000.0000
v  58500.0000 8087.8369 -18000.0000
v  -44807.3516 3645.7627 13170.0000
v  39762.6484 3645.7627 13170.0000
v  39762.6484 5365.7627 13170.0000
v  -44807.3516 5365.7627 13170.0000
v  39762.6484 3645.7627 -12670.0000
v  -44807.3516 3645.7627 -12670.0000
v  -44807.3516 5365.7627 -12670.0000
v  39762.6484 5365.7627 -12670.0000
# 528 vertices

vn 0.4642 -0.7928 -0.3950
vn 0.5040 -0.8225 -0.2635
vn 0.6023 -0.7978 -0.0285
vn 0.2950 -0.9552 -0.0226
vn 0.1955 -0.9786 -0.0639
vn 0.0415 -0.9991 -0.0093
vn 0.0101 -0.9999 -0.0034
vn -0.0350 -0.9994 0.0079
vn -0.1683 -0.9842 0.0548
vn -0.0085 -1.0000 0.0028
vn -0.2565 -0.9663 0.0198
vn -0.4498 -0.8631 0.2297
vn -0.5369 -0.8432 0.0263
vn -0.4832 -0.8113 0.3291
vn -0.4766 -0.8791 -0.0070
vn -0.2954 -0.9086 0.2954
vn -0.1192 -0.9857 -0.1192
vn 0.1192 -0.9857 0.1192
vn 0.2947 -0.9097 -0.2927
vn 0.4766 -0.8791 0.0070
vn 0.4825 -0.8158 -0.3190
vn 0.5369 -0.8432 -0.0263
vn 0.4535 -0.8633 -0.2214
vn 0.2565 -0.9663 -0.0198
vn 0.1536 -0.9880 -0.0147
vn 0.0161 -0.9999 0.0004
vn -0.0511 -0.9843 0.1688
vn -0.0040 -0.9998 0.0177
vn -0.0179 -0.9667 0.2552
vn 0.0030 -1.0000 0.0079
vn -0.0319 -0.9736 0.2262
vn -0.1042 -0.9937 0.0406
vn -0.3191 -0.8630 0.3917
vn -0.2899 -0.9499 0.1172
vn -0.4055 -0.6616 0.6308
vn -0.2305 -0.9657 0.1197
vn -0.0472 -0.6712 0.7398
vn 0.2550 -0.9605 -0.1111
vn 0.5174 -0.6853 0.5126
vn 0.5693 -0.6991 -0.4326
vn 0.7451 -0.6555 0.1229
vn 0.5002 -0.6809 -0.5349
vn 0.5662 -0.8225 -0.0542
vn 0.3094 -0.7851 -0.5365
vn 0.3768 -0.9228 -0.0797
vn 0.1415 -0.7952 -0.5896
vn 0.3468 -0.9123 -0.2177
vn -0.1535 -0.7175 -0.6794
vn -0.0519 -0.9425 -0.3303
vn -0.4620 -0.6108 -0.6430
vn -0.5119 -0.7670 -0.3869
vn -0.5269 -0.6064 -0.5956
vn -0.6083 -0.6714 -0.4232
vn -0.3987 -0.7057 -0.5857
vn -0.6190 -0.7007 -0.3548
vn -0.1648 -0.8693 -0.4660
vn -0.4758 -0.8673 -0.1465
vn 0.0475 -0.9709 -0.2348
vn -0.1108 -0.9922 0.0574
vn 0.1201 -0.9850 -0.1237
vn 0.0296 -0.9768 0.2121
vn 0.0843 -0.9964 0.0098
vn -0.1169 -0.9280 0.3538
vn -0.1325 -0.9436 0.3035
vn -0.2744 -0.8506 0.4485
vn -0.2450 -0.8554 0.4563
vn -0.2211 -0.9056 0.3619
vn 0.0081 -0.8878 0.4602
vn 0.1272 -0.9837 0.1272
vn 0.3580 -0.8603 0.3630
vn 0.4411 -0.8970 0.0284
vn 0.1656 -0.9680 0.1884
vn 0.3239 -0.9423 0.0845
vn -0.3461 -0.9332 -0.0971
vn -0.1692 -0.9845 0.0450
vn -0.4453 -0.8456 -0.2943
vn -0.2625 -0.9509 -0.1640
vn 0.0374 -0.8993 -0.4356
vn 0.1749 -0.9119 -0.3713
vn 0.4139 -0.8371 -0.3577
vn 0.2845 -0.9378 -0.1992
vn 0.0457 -0.9988 -0.0185
vn -0.0000 -1.0000 -0.0000
vn -0.0192 -0.9998 -0.0079
vn -0.2154 -0.9759 -0.0350
vn -0.4407 -0.8751 -0.2000
vn -0.3775 -0.8456 -0.3775
vn -0.0160 -0.8889 -0.4578
vn 0.3067 -0.8750 -0.3747
vn 0.4146 -0.8936 -0.1722
vn 0.2363 -0.9710 0.0362
vn -0.1189 -0.9568 0.2655
vn -0.2253 -0.8635 0.4513
vn -0.0076 -0.8531 0.5218
vn -0.0745 -0.8739 0.4803
vn -0.5225 -0.6864 0.5058
vn -0.5585 -0.6039 0.5686
vn -0.0389 -0.7317 0.6805
vn 0.6179 -0.5669 0.5448
vn 0.7933 -0.4842 0.3691
vn 0.6027 -0.7165 0.3514
vn 0.4563 -0.8403 0.2927
vn 0.4682 -0.8655 0.1781
vn 0.0228 -0.9842 0.1755
vn -0.4739 -0.8718 0.1242
vn -0.6319 -0.7746 -0.0262
vn -0.7152 -0.6961 -0.0625
vn -0.5951 -0.8037 -0.0020
vn -0.3551 -0.8988 0.2572
vn -0.2029 -0.8285 0.5220
vn -0.1697 -0.7694 0.6158
vn -0.1004 -0.8338 0.5429
vn 0.1318 -0.9640 0.2308
vn 0.3697 -0.9089 -0.1929
vn 0.3685 -0.9034 -0.2192
vn 0.1496 -0.9867 0.0633
vn -0.1542 -0.9610 0.2294
vn -0.0414 -0.9932 0.1087
vn 0.3105 -0.9501 -0.0302
vn 0.3772 -0.9248 -0.0492
vn 0.1683 -0.9856 -0.0190
vn 0.0065 -1.0000 0.0026
vn -0.0028 -1.0000 -0.0028
vn -0.0868 -0.9953 -0.0440
vn -0.2170 -0.9517 -0.2170
vn -0.2336 -0.8742 -0.4257
vn -0.1631 -0.9096 -0.3820
vn -0.0042 -0.9998 -0.0206
vn 0.1686 -0.9278 0.3329
vn 0.0829 -0.8936 0.4412
vn -0.2286 -0.8646 0.4475
vn -0.3001 -0.8577 0.4174
vn 0.0153 -0.9078 0.4191
vn -0.0657 -0.9214 0.3830
vn -0.6123 -0.7743 0.1595
vn -0.6806 -0.7327 0.0001
vn -0.0346 -0.9993 -0.0166
vn 0.6949 -0.7189 -0.0149
vn 0.8504 -0.5198 0.0820
vn 0.7236 -0.6708 0.1627
vn 0.5845 -0.8085 0.0689
vn 0.4304 -0.8940 0.1245
vn -0.0721 -0.9330 0.3527
vn -0.3783 -0.8624 0.3364
vn -0.5115 -0.8393 0.1844
vn -0.6768 -0.7362 -0.0029
vn -0.6763 -0.7354 -0.0420
vn -0.5860 -0.7883 0.1874
vn -0.4225 -0.8117 0.4033
vn -0.1446 -0.8888 0.4350
vn 0.2169 -0.9309 0.2939
vn 0.5189 -0.8546 -0.0195
vn 0.4937 -0.8181 -0.2951
vn 0.1630 -0.9551 -0.2475
vn -0.1523 -0.9856 0.0729
vn -0.1831 -0.9629 0.1980
vn 0.0788 -0.9943 0.0725
vn 0.3545 -0.9349 -0.0173
vn 0.3954 -0.9182 -0.0251
vn 0.1806 -0.9834 -0.0141
vn 0.0118 -0.9999 -0.0026
vn -0.0122 -0.9999 -0.0122
vn -0.0481 -0.9952 -0.0854
vn -0.1967 -0.9669 -0.1623
vn -0.4291 -0.9031 -0.0170
vn -0.3613 -0.8926 0.2697
vn -0.0216 -0.9002 0.4349
vn 0.1373 -0.8978 0.4184
vn -0.1293 -0.9436 0.3048
vn -0.2569 -0.9546 0.1508
vn 0.0631 -0.9924 0.1059
vn 0.1206 -0.9927 0.0086
vn -0.3179 -0.8775 -0.3592
vn -0.4869 -0.6430 -0.5912
vn -0.0227 -0.7116 -0.7023
vn 0.5643 -0.5929 -0.5745
vn 0.7531 -0.5679 -0.3322
vn 0.7094 -0.6901 -0.1432
vn 0.5778 -0.7924 -0.1958
vn 0.2407 -0.9621 -0.1284
vn -0.2683 -0.9539 0.1346
vn -0.3734 -0.8928 0.2519
vn -0.4130 -0.8859 0.2112
vn -0.5407 -0.8355 -0.0977
vn -0.7123 -0.6868 -0.1446
vn -0.7043 -0.7097 0.0163
vn -0.4915 -0.8638 0.1107
vn -0.0518 -0.9975 0.0472
vn 0.3932 -0.9168 -0.0700
vn 0.6492 -0.7311 -0.2098
vn 0.4738 -0.8340 -0.2828
vn -0.0732 -0.9775 -0.1977
vn -0.3114 -0.9494 -0.0400
vn -0.0830 -0.9931 -0.0830
vn 0.2118 -0.9541 -0.2118
vn 0.3602 -0.8996 -0.2470
vn 0.3268 -0.9303 -0.1664
vn 0.1166 -0.9925 -0.0378
vn 0.0029 -1.0000 -0.0010
vn -0.0186 -0.9998 0.0024
vn -0.2552 -0.9668 0.0104
vn -0.5261 -0.8503 0.0112
vn -0.4509 -0.8925 0.0122
vn -0.0185 -0.9998 -0.0002
vn 0.2347 -0.9716 -0.0310
vn 0.0032 -0.9944 -0.1053
vn -0.1896 -0.9691 -0.1580
vn 0.0926 -0.9806 -0.1728
vn 0.3595 -0.9077 -0.2163
vn 0.1114 -0.8816 -0.4586
vn -0.1800 -0.7070 -0.6839
vn -0.0033 -0.6079 -0.7940
vn 0.3696 -0.6362 -0.6773
vn 0.5829 -0.7350 -0.3465
vn 0.6655 -0.7454 -0.0401
vn 0.5506 -0.8347 0.0140
vn 0.0488 -0.9943 0.0946
vn -0.4280 -0.8745 0.2282
vn -0.4043 -0.8694 0.2841
vn -0.1788 -0.9681 0.1755
vn -0.3369 -0.9394 -0.0640
vn -0.7224 -0.6745 -0.1521
vn -0.7345 -0.6653 -0.1337
vn -0.4554 -0.8749 -0.1648
vn 0.0295 -0.9751 -0.2199
vn 0.4693 -0.8520 -0.2319
vn 0.6734 -0.7097 -0.2071
vn 0.4067 -0.9002 -0.1555
vn -0.1317 -0.9743 -0.1826
vn -0.2670 -0.9230 -0.2772
vn -0.0024 -0.9365 -0.3506
vn 0.2470 -0.8996 -0.3602
vn 0.2990 -0.9062 -0.2990
vn 0.1655 -0.9765 -0.1382
vn 0.0255 -0.9996 -0.0110
vn -0.0094 -0.9999 -0.0039
vn -0.2115 -0.9768 -0.0344
vn -0.4338 -0.8792 -0.1968
vn -0.3718 -0.8506 -0.3718
vn 0.0065 -0.8903 -0.4554
vn 0.2102 -0.8733 -0.4395
vn 0.0156 -0.8951 -0.4455
vn -0.1806 -0.8912 -0.4162
vn 0.0777 -0.9037 -0.4211
vn 0.3845 -0.8503 -0.3593
vn 0.3111 -0.8873 -0.3404
vn 0.0292 -0.9310 -0.3639
vn 0.0042 -0.9051 -0.4252
vn 0.1089 -0.9479 -0.2994
vn 0.2986 -0.9537 -0.0371
vn 0.5233 -0.8181 0.2384
vn 0.4439 -0.7783 0.4439
vn -0.0105 -0.8399 0.5427
vn -0.3740 -0.7846 0.4945
vn -0.3027 -0.8508 0.4296
vn 0.0091 -0.9517 0.3068
vn -0.2263 -0.9527 0.2028
vn -0.6300 -0.7756 -0.0383
vn -0.6935 -0.6682 -0.2693
vn -0.4111 -0.7988 -0.4393
vn 0.0250 -0.8726 -0.4878
vn 0.4198 -0.7992 -0.4301
vn 0.6001 -0.7487 -0.2816
vn 0.4029 -0.9059 -0.1300
vn 0.0021 -0.9844 -0.1761
vn -0.1353 -0.9371 -0.3217
vn 0.0203 -0.9188 -0.3941
vn 0.1664 -0.9303 -0.3268
vn 0.1382 -0.9765 -0.1655
vn 0.0326 -0.9989 -0.0326
vn -0.0014 -1.0000 -0.0014
vn -0.0851 -0.9954 -0.0431
vn -0.2133 -0.9534 -0.2133
vn -0.1968 -0.8792 -0.4338
vn 0.0248 -0.8477 -0.5300
vn 0.1568 -0.8664 -0.4740
vn -0.0253 -0.9207 -0.3895
vn -0.1418 -0.8880 -0.4374
vn 0.0580 -0.8674 -0.4942
vn 0.2461 -0.8927 -0.3775
vn 0.1661 -0.9768 -0.1354
vn -0.0016 -1.0000 0.0012
vn 0.0011 -0.9996 -0.0296
vn 0.0048 -1.0000 -0.0072
vn 0.1096 -0.9924 0.0550
vn 0.2628 -0.9284 0.2628
vn 0.2384 -0.8181 0.5233
vn -0.0286 -0.7752 0.6311
vn -0.2421 -0.8032 0.5443
vn -0.1070 -0.9251 0.3644
vn 0.0788 -0.9512 0.2984
vn -0.1050 -0.9466 0.3048
vn -0.4241 -0.9034 0.0636
vn -0.4860 -0.7887 -0.3766
vn -0.2576 -0.7348 -0.6275
vn 0.0143 -0.7324 -0.6808
vn 0.2691 -0.7529 -0.6007
vn 0.3948 -0.8297 -0.3948
vn 0.2921 -0.9416 -0.1674
vn 0.0669 -0.9936 -0.0905
vn -0.0223 -0.9883 -0.1510
vn 0.0141 -0.9834 -0.1806
vn 0.0378 -0.9925 -0.1166
vn 0.0110 -0.9996 -0.0255
vn -0.0238 -0.9994 -0.0238
vn -0.0805 -0.9822 -0.1697
vn -0.0491 -0.9124 -0.4063
vn 0.0302 -0.8896 -0.4557
vn 0.0691 -0.9411 -0.3309
vn -0.0503 -0.9695 -0.2401
vn -0.0404 -0.9166 -0.3978
vn 0.0399 -0.9069 -0.4195
vn 0.0934 -0.9636 -0.2507
vn 0.0154 -0.9996 -0.0239
vn -0.0045 -0.9999 0.0108
vn 0.0311 -0.9990 0.0311
vn 0.1022 -0.9705 0.2183
vn 0.0588 -0.8627 0.5023
vn -0.0357 -0.8316 0.5542
vn -0.1032 -0.9116 0.3979
vn 0.0107 -0.9812 0.1925
vn 0.0318 -0.9667 0.2540
vn -0.0437 -0.9624 0.2679
vn -0.2049 -0.9786 -0.0176
vn -0.1788 -0.8385 -0.5147
vn -0.1275 -0.7300 -0.6714
vn -0.0045 -0.7318 -0.6815
vn 0.1286 -0.8046 -0.5797
vn 0.1993 -0.9148 -0.3514
vn 0.0019 -1.0000 -0.0057
vn 0.0053 -0.9997 -0.0235
vn -0.0053 -0.9999 -0.0129
vn 0.0268 -0.9996 -0.0067
vn 0.1596 -0.9778 -0.1356
vn 0.0021 -1.0000 0.0050
vn 0.5157 -0.8566 -0.0156
vn -0.5159 -0.8562 0.0272
vn -0.5483 -0.8335 0.0677
vn -0.0867 -0.9669 0.2400
vn 0.1744 -0.8860 0.4296
vn 0.1748 -0.9604 0.2169
vn 0.2756 -0.9608 0.0293
vn -0.0712 -0.8990 0.4321
vn -0.0166 -0.8556 0.5174
vn 0.2337 -0.9716 -0.0367
vn 0.2560 -0.9522 -0.1669
vn 0.0125 -0.9568 -0.2906
vn -0.3423 -0.8638 -0.3697
vn -0.5085 -0.7484 -0.4258
vn -0.4664 -0.6825 -0.5627
vn -0.2610 -0.7042 -0.6603
vn 0.0599 -0.7336 -0.6769
vn 0.3437 -0.6730 -0.6549
vn 0.4708 -0.6395 -0.6078
vn 0.3098 -0.7878 -0.5324
vn -0.0425 -0.9089 -0.4148
vn -0.3383 -0.8922 -0.2991
vn -0.3817 -0.9097 -0.1634
vn -0.1813 -0.9830 -0.0296
vn -0.0079 -1.0000 -0.0032
vn 0.0096 -0.9999 0.0039
vn 0.2154 -0.9759 0.0350
vn 0.4407 -0.8751 0.2000
vn 0.3775 -0.8456 0.3775
vn 0.0070 -0.8791 0.4766
vn -0.3291 -0.8113 0.4832
vn -0.4023 -0.8224 0.4023
vn -0.2357 -0.9517 0.1969
vn -0.0378 -0.9992 0.0164
vn 0.0228 -0.9997 0.0093
vn 0.2491 -0.9676 0.0403
vn 0.4980 -0.8370 0.2266
vn 0.4238 -0.8005 0.4238
vn -0.0166 -0.8571 0.5149
vn -0.4374 -0.7858 0.4374
vn -0.4874 -0.8266 0.2815
vn -0.1514 -0.9775 0.1467
vn 0.0287 -0.9777 0.2082
vn -0.0135 -0.9686 0.2484
vn 0.0840 -0.9797 0.1818
vn 0.2763 -0.9466 0.1663
vn 0.2645 -0.9315 0.2495
vn 0.2671 -0.9182 0.2926
vn 0.3366 -0.9014 0.2725
vn 0.0972 -0.9687 0.2285
vn -0.2739 -0.9513 0.1418
vn -0.4280 -0.9038 -0.0066
vn -0.3665 -0.8994 -0.2382
vn -0.1549 -0.8488 -0.5055
vn 0.0954 -0.7923 -0.6026
vn 0.3332 -0.7993 -0.5000
vn 0.4097 -0.8860 -0.2170
vn 0.1895 -0.9810 -0.0421
vn -0.1240 -0.9922 0.0089
vn -0.4045 -0.9144 0.0160
vn -0.4649 -0.8850 0.0235
vn -0.2170 -0.9760 0.0169
vn -0.0144 -0.9999 0.0032
vn 0.0014 -1.0000 0.0014
vn 0.0868 -0.9953 0.0440
vn 0.2170 -0.9517 0.2170
vn 0.2000 -0.8751 0.4407
vn -0.0263 -0.8432 0.5369
vn -0.2297 -0.8631 0.4498
vn -0.1969 -0.9517 0.2357
vn -0.0484 -0.9977 0.0484
vn 0.0034 -1.0000 0.0034
vn 0.1022 -0.9934 0.0515
vn 0.2484 -0.9363 0.2484
vn 0.2266 -0.8370 0.4980
vn -0.0285 -0.7978 0.6023
vn -0.2714 -0.8239 0.4975
vn -0.2322 -0.9445 0.2322
vn -0.0434 -0.9988 0.0208
vn 0.0038 -1.0000 0.0092
vn -0.0029 -0.9998 0.0176
vn 0.0519 -0.9982 0.0313
vn 0.1403 -0.9801 0.1403
vn 0.1378 -0.9460 0.2935
vn 0.1871 -0.9061 0.3793
vn 0.2637 -0.8392 0.4755
vn 0.1362 -0.8366 0.5306
vn -0.1231 -0.8790 0.4607
vn -0.2319 -0.9178 0.3224
vn -0.1165 -0.9838 0.1365
vn 0.0925 -0.9871 -0.1308
vn 0.0707 -0.9819 -0.1755
vn 0.0937 -0.9956 -0.0003
vn 0.1505 -0.9364 0.3169
vn 0.1120 -0.8958 0.4302
vn -0.0925 -0.9038 0.4179
vn -0.3431 -0.8749 0.3418
vn -0.3796 -0.9019 0.2059
vn -0.1411 -0.9889 0.0458
vn -0.0035 -1.0000 0.0012
vn 0.0122 -0.9999 0.0122
vn 0.0440 -0.9953 0.0868
vn 0.0350 -0.9759 0.2154
vn -0.0198 -0.9663 0.2565
vn -0.0548 -0.9842 0.1683
vn -0.0164 -0.9992 0.0378
vn 0.0288 -0.9992 0.0288
vn 0.0957 -0.9744 0.2036
vn 0.0561 -0.8784 0.4745
vn -0.0342 -0.8497 0.5262
vn -0.1099 -0.9254 0.3628
vn -0.0355 -0.9956 0.0862
vn 0.0147 -0.9998 0.0147
vn 0.0510 -0.9930 0.1064
vn 0.0350 -0.9632 0.2667
vn 0.0909 -0.9221 0.3762
vn 0.1459 -0.8404 0.5220
vn 0.1261 -0.8097 0.5731
vn -0.0298 -0.8579 0.5130
vn -0.1138 -0.9061 0.4074
vn 0.0470 -0.9618 0.2699
vn 0.1828 -0.9740 0.1340
vn 0.0248 -0.9887 0.1481
vn -0.0852 -0.9526 0.2922
vn -0.0178 -0.8634 0.5043
vn 0.0652 -0.8235 0.5636
vn -0.0433 -0.8484 0.5275
vn -0.2473 -0.8781 0.4097
vn -0.2292 -0.9539 0.1937
vn -0.0424 -0.9991 0.0070
vn 0.0079 -0.9998 0.0192
vn -0.0079 -0.9994 0.0350
vn -0.0028 -1.0000 0.0085
vn -0.5774 -0.5774 0.5774
vn 0.5774 -0.5774 0.5774
vn 0.5774 0.5774 0.5774
vn -0.5774 0.5774 0.5774
vn 0.5774 -0.5774 -0.5774
vn -0.5774 -0.5774 -0.5774
vn -0.5774 0.5774 -0.5774
vn 0.5774 0.5774 -0.5774
# 476 vertex normals

vt 0.0000 0.0000 0.0000
vt 4.4923 10.0623 0.0000
vt 4.4923 1.5846 0.0000
vt 32.2384 1.5846 0.0000
vt 32.2384 10.0623 0.0000
# 5 texture coords

g Layer0_001
usemtl wire_134006006
s off
f 1/1/1 2/1/2 3/1/3 
f 2/1/2 4/1/4 3/1/3 
f 2/1/2 5/1/5 4/1/4 
f 5/1/5 6/1/6 4/1/4 
f 5/1/5 7/1/7 6/1/6 
f 8/1/8 9/1/9 10/1/10 
f 8/1/8 11/1/11 9/1/9 
f 11/1/11 12/1/12 9/1/9 
f 11/1/11 13/1/13 12/1/12 
f 13/1/13 14/1/14 12/1/12 
f 13/1/13 15/1/15 14/1/14 
f 15/1/15 16/1/16 14/1/14 
f 15/1/15 17/1/17 16/1/16 
f 17/1/17 18/1/18 16/1/16 
f 17/1/17 19/1/19 18/1/18 
f 19/1/19 20/1/20 18/1/18 
f 19/1/19 21/1/21 20/1/20 
f 21/1/21 22/1/22 20/1/20 
f 21/1/21 23/1/23 22/1/22 
f 23/1/23 24/1/24 22/1/22 
f 23/1/23 25/1/25 24/1/24 
f 25/1/25 26/1/26 24/1/24 
f 25/1/25 27/1/27 26/1/26 
f 27/1/27 28/1/28 26/1/26 
f 27/1/27 29/1/29 28/1/28 
f 29/1/29 30/1/30 28/1/28 
f 29/1/29 31/1/31 30/1/30 
f 31/1/31 32/1/32 30/1/30 
f 31/1/31 33/1/33 32/1/32 
f 33/1/33 34/1/34 32/1/32 
f 33/1/33 35/1/35 34/1/34 
f 35/1/35 36/1/36 34/1/34 
f 35/1/35 37/1/37 36/1/36 
f 37/1/37 38/1/38 36/1/36 
f 37/1/37 39/1/39 38/1/38 
f 39/1/39 40/1/40 38/1/38 
f 40/1/40 39/1/39 41/1/41 
f 41/1/41 42/1/42 40/1/40 
f 42/1/42 41/1/41 43/1/43 
f 43/1/43 44/1/44 42/1/42 
f 43/1/43 45/1/45 44/1/44 
f 45/1/45 46/1/46 44/1/44 
f 45/1/45 47/1/47 46/1/46 
f 47/1/47 48/1/48 46/1/46 
f 47/1/47 49/1/49 48/1/48 
f 49/1/49 50/1/50 48/1/48 
f 49/1/49 51/1/51 50/1/50 
f 50/1/50 51/1/51 52/1/52 
f 52/1/52 51/1/51 53/1/53 
f 54/1/54 52/1/52 53/1/53 
f 53/1/53 55/1/55 54/1/54 
f 55/1/55 56/1/56 54/1/54 
f 55/1/55 57/1/57 56/1/56 
f 57/1/57 58/1/58 56/1/56 
f 57/1/57 59/1/59 58/1/58 
f 59/1/59 60/1/60 58/1/58 
f 59/1/59 61/1/61 60/1/60 
f 61/1/61 62/1/62 60/1/60 
f 61/1/61 63/1/63 62/1/62 
f 63/1/63 64/1/64 62/1/62 
f 63/1/63 65/1/65 64/1/64 
f 65/1/65 66/1/66 64/1/64 
f 65/1/65 67/1/67 66/1/66 
f 67/1/67 68/1/68 66/1/66 
f 67/1/67 69/1/69 68/1/68 
f 69/1/69 70/1/70 68/1/68 
f 69/1/69 71/1/71 70/1/70 
f 71/1/71 72/1/72 70/1/70 
f 71/1/71 73/1/73 72/1/72 
f 73/1/73 74/1/74 72/1/72 
f 73/1/73 75/1/75 74/1/74 
f 75/1/75 76/1/76 74/1/74 
f 75/1/75 77/1/77 76/1/76 
f 77/1/77 78/1/78 76/1/76 
f 77/1/77 79/1/79 78/1/78 
f 79/1/79 1/1/1 78/1/78 
f 79/1/79 80/1/80 1/1/1 
f 80/1/80 2/1/2 1/1/1 
f 80/1/80 81/1/81 2/1/2 
f 81/1/81 5/1/5 2/1/2 
f 81/1/81 82/1/82 5/1/5 
f 82/1/82 7/1/7 5/1/5 
f 82/1/82 83/1/83 7/1/7 
f 84/1/84 11/1/11 8/1/8 
f 84/1/84 85/1/85 11/1/11 
f 85/1/85 13/1/13 11/1/11 
f 85/1/85 86/1/86 13/1/13 
f 86/1/86 15/1/15 13/1/13 
f 86/1/86 87/1/87 15/1/15 
f 87/1/87 17/1/17 15/1/15 
f 87/1/87 88/1/88 17/1/17 
f 88/1/88 19/1/19 17/1/17 
f 88/1/88 89/1/89 19/1/19 
f 89/1/89 21/1/21 19/1/19 
f 89/1/89 90/1/90 21/1/21 
f 90/1/90 23/1/23 21/1/21 
f 90/1/90 91/1/91 23/1/23 
f 91/1/91 25/1/25 23/1/23 
f 91/1/91 92/1/92 25/1/25 
f 92/1/92 27/1/27 25/1/25 
f 92/1/92 93/1/93 27/1/27 
f 93/1/93 29/1/29 27/1/27 
f 93/1/93 94/1/94 29/1/29 
f 94/1/94 31/1/31 29/1/29 
f 94/1/94 95/1/95 31/1/31 
f 95/1/95 33/1/33 31/1/31 
f 95/1/95 96/1/96 33/1/33 
f 96/1/96 35/1/35 33/1/33 
f 97/1/97 35/1/35 96/1/96 
f 97/1/97 37/1/37 35/1/35 
f 98/1/98 37/1/37 97/1/97 
f 98/1/98 39/1/39 37/1/37 
f 98/1/98 99/1/99 39/1/39 
f 99/1/99 41/1/41 39/1/39 
f 41/1/41 99/1/99 100/1/100 
f 41/1/41 100/1/100 43/1/43 
f 43/1/43 100/1/100 101/1/101 
f 101/1/101 45/1/45 43/1/43 
f 101/1/101 102/1/102 45/1/45 
f 102/1/102 47/1/47 45/1/45 
f 102/1/102 103/1/103 47/1/47 
f 103/1/103 49/1/49 47/1/47 
f 103/1/103 104/1/104 49/1/49 
f 104/1/104 51/1/51 49/1/49 
f 104/1/104 105/1/105 51/1/51 
f 105/1/105 53/1/53 51/1/51 
f 105/1/105 106/1/106 53/1/53 
f 106/1/106 55/1/55 53/1/53 
f 55/1/55 106/1/106 107/1/107 
f 107/1/107 57/1/57 55/1/55 
f 57/1/57 107/1/107 108/1/108 
f 108/1/108 59/1/59 57/1/57 
f 108/1/108 109/1/109 59/1/59 
f 109/1/109 61/1/61 59/1/59 
f 109/1/109 110/1/110 61/1/61 
f 110/1/110 63/1/63 61/1/61 
f 110/1/110 111/1/111 63/1/63 
f 111/1/111 65/1/65 63/1/63 
f 111/1/111 112/1/112 65/1/65 
f 112/1/112 67/1/67 65/1/65 
f 112/1/112 113/1/113 67/1/67 
f 113/1/113 69/1/69 67/1/67 
f 113/1/113 114/1/114 69/1/69 
f 114/1/114 71/1/71 69/1/69 
f 114/1/114 115/1/115 71/1/71 
f 115/1/115 73/1/73 71/1/71 
f 115/1/115 116/1/116 73/1/73 
f 116/1/116 75/1/75 73/1/73 
f 116/1/116 117/1/117 75/1/75 
f 117/1/117 77/1/77 75/1/75 
f 117/1/117 118/1/118 77/1/77 
f 118/1/118 79/1/79 77/1/77 
f 118/1/118 119/1/119 79/1/79 
f 119/1/119 80/1/80 79/1/79 
f 119/1/119 120/1/120 80/1/80 
f 120/1/120 81/1/81 80/1/80 
f 120/1/120 121/1/121 81/1/81 
f 121/1/121 82/1/82 81/1/81 
f 121/1/121 122/1/122 82/1/82 
f 122/1/122 83/1/83 82/1/82 
f 122/1/122 123/1/83 83/1/83 
f 124/1/123 85/1/85 84/1/84 
f 124/1/123 125/1/124 85/1/85 
f 125/1/124 86/1/86 85/1/85 
f 125/1/124 126/1/125 86/1/86 
f 126/1/125 87/1/87 86/1/86 
f 126/1/125 127/1/126 87/1/87 
f 127/1/126 88/1/88 87/1/87 
f 127/1/126 128/1/127 88/1/88 
f 128/1/127 89/1/89 88/1/88 
f 128/1/127 129/1/128 89/1/89 
f 129/1/128 90/1/90 89/1/89 
f 129/1/128 130/1/129 90/1/90 
f 130/1/129 91/1/91 90/1/90 
f 130/1/129 131/1/130 91/1/91 
f 131/1/130 92/1/92 91/1/91 
f 131/1/130 132/1/131 92/1/92 
f 132/1/131 93/1/93 92/1/92 
f 132/1/131 133/1/132 93/1/93 
f 133/1/132 94/1/94 93/1/93 
f 133/1/132 134/1/133 94/1/94 
f 134/1/133 95/1/95 94/1/94 
f 134/1/133 135/1/134 95/1/95 
f 135/1/134 96/1/96 95/1/95 
f 135/1/134 136/1/135 96/1/96 
f 96/1/96 136/1/135 97/1/97 
f 97/1/97 136/1/135 137/1/136 
f 137/1/136 98/1/98 97/1/97 
f 137/1/136 138/1/137 98/1/98 
f 138/1/137 99/1/99 98/1/98 
f 138/1/137 139/1/138 99/1/99 
f 99/1/99 139/1/138 100/1/100 
f 100/1/100 139/1/138 140/1/139 
f 100/1/100 140/1/139 101/1/101 
f 101/1/101 140/1/139 141/1/140 
f 141/1/140 102/1/102 101/1/101 
f 141/1/140 142/1/141 102/1/102 
f 142/1/141 103/1/103 102/1/102 
f 142/1/141 143/1/142 103/1/103 
f 143/1/142 104/1/104 103/1/103 
f 143/1/142 144/1/143 104/1/104 
f 144/1/143 105/1/105 104/1/104 
f 144/1/143 145/1/144 105/1/105 
f 145/1/144 106/1/106 105/1/105 
f 145/1/144 146/1/145 106/1/106 
f 106/1/106 146/1/145 107/1/107 
f 146/1/145 147/1/146 107/1/107 
f 107/1/107 147/1/146 108/1/108 
f 108/1/108 147/1/146 148/1/147 
f 148/1/147 109/1/109 108/1/108 
f 148/1/147 149/1/148 109/1/109 
f 149/1/148 110/1/110 109/1/109 
f 149/1/148 150/1/149 110/1/110 
f 150/1/149 111/1/111 110/1/110 
f 150/1/149 151/1/150 111/1/111 
f 151/1/150 112/1/112 111/1/111 
f 151/1/150 152/1/151 112/1/112 
f 152/1/151 113/1/113 112/1/112 
f 152/1/151 153/1/152 113/1/113 
f 153/1/152 114/1/114 113/1/113 
f 153/1/152 154/1/153 114/1/114 
f 154/1/153 115/1/115 114/1/114 
f 154/1/153 155/1/154 115/1/115 
f 155/1/154 116/1/116 115/1/115 
f 155/1/154 156/1/155 116/1/116 
f 156/1/155 117/1/117 116/1/116 
f 156/1/155 157/1/156 117/1/117 
f 157/1/156 118/1/118 117/1/117 
f 157/1/156 158/1/157 118/1/118 
f 158/1/157 119/1/119 118/1/118 
f 158/1/157 159/1/158 119/1/119 
f 159/1/158 120/1/120 119/1/119 
f 159/1/158 160/1/159 120/1/120 
f 160/1/159 121/1/121 120/1/120 
f 160/1/159 161/1/160 121/1/121 
f 161/1/160 122/1/122 121/1/121 
f 161/1/160 162/1/161 122/1/122 
f 162/1/161 123/1/83 122/1/122 
f 162/1/161 163/1/83 123/1/83 
f 164/1/83 125/1/124 124/1/123 
f 164/1/83 165/1/162 125/1/124 
f 165/1/162 126/1/125 125/1/124 
f 165/1/162 166/1/163 126/1/125 
f 166/1/163 127/1/126 126/1/125 
f 166/1/163 167/1/164 127/1/126 
f 167/1/164 128/1/127 127/1/126 
f 167/1/164 168/1/165 128/1/127 
f 168/1/165 129/1/128 128/1/127 
f 168/1/165 169/1/166 129/1/128 
f 169/1/166 130/1/129 129/1/128 
f 169/1/166 170/1/167 130/1/129 
f 170/1/167 131/1/130 130/1/129 
f 170/1/167 171/1/168 131/1/130 
f 171/1/168 132/1/131 131/1/130 
f 171/1/168 172/1/169 132/1/131 
f 172/1/169 133/1/132 132/1/131 
f 172/1/169 173/1/170 133/1/132 
f 173/1/170 134/1/133 133/1/132 
f 173/1/170 174/1/171 134/1/133 
f 174/1/171 135/1/134 134/1/133 
f 174/1/171 175/1/172 135/1/134 
f 175/1/172 136/1/135 135/1/134 
f 175/1/172 176/1/173 136/1/135 
f 136/1/135 176/1/173 137/1/136 
f 176/1/173 177/1/174 137/1/136 
f 177/1/174 138/1/137 137/1/136 
f 177/1/174 178/1/175 138/1/137 
f 178/1/175 139/1/138 138/1/137 
f 178/1/175 179/1/176 139/1/138 
f 139/1/138 179/1/176 140/1/139 
f 140/1/139 179/1/176 180/1/177 
f 140/1/139 180/1/177 141/1/140 
f 141/1/140 180/1/177 181/1/178 
f 181/1/178 142/1/141 141/1/140 
f 181/1/178 182/1/179 142/1/141 
f 182/1/179 143/1/142 142/1/141 
f 182/1/179 183/1/180 143/1/142 
f 183/1/180 144/1/143 143/1/142 
f 183/1/180 184/1/181 144/1/143 
f 184/1/181 145/1/144 144/1/143 
f 184/1/181 185/1/182 145/1/144 
f 185/1/182 146/1/145 145/1/144 
f 185/1/182 186/1/183 146/1/145 
f 186/1/183 147/1/146 146/1/145 
f 186/1/183 187/1/184 147/1/146 
f 147/1/146 187/1/184 148/1/147 
f 187/1/184 188/1/185 148/1/147 
f 188/1/185 149/1/148 148/1/147 
f 149/1/148 188/1/185 189/1/186 
f 189/1/186 150/1/149 149/1/148 
f 189/1/186 190/1/187 150/1/149 
f 190/1/187 151/1/150 150/1/149 
f 190/1/187 191/1/188 151/1/150 
f 191/1/188 152/1/151 151/1/150 
f 191/1/188 192/1/189 152/1/151 
f 192/1/189 153/1/152 152/1/151 
f 192/1/189 193/1/190 153/1/152 
f 193/1/190 154/1/153 153/1/152 
f 154/1/153 193/1/190 194/1/191 
f 194/1/191 155/1/154 154/1/153 
f 194/1/191 195/1/192 155/1/154 
f 195/1/192 156/1/155 155/1/154 
f 195/1/192 196/1/193 156/1/155 
f 196/1/193 157/1/156 156/1/155 
f 196/1/193 197/1/194 157/1/156 
f 197/1/194 158/1/157 157/1/156 
f 197/1/194 198/1/195 158/1/157 
f 198/1/195 159/1/158 158/1/157 
f 198/1/195 199/1/196 159/1/158 
f 199/1/196 160/1/159 159/1/158 
f 199/1/196 200/1/197 160/1/159 
f 200/1/197 161/1/160 160/1/159 
f 200/1/197 201/1/198 161/1/160 
f 201/1/198 162/1/161 161/1/160 
f 201/1/198 202/1/199 162/1/161 
f 202/1/199 163/1/83 162/1/161 
f 202/1/199 203/1/83 163/1/83 
f 204/1/83 165/1/162 164/1/83 
f 204/1/83 205/1/83 165/1/162 
f 205/1/83 166/1/163 165/1/162 
f 205/1/83 206/1/200 166/1/163 
f 206/1/200 167/1/164 166/1/163 
f 206/1/200 207/1/201 167/1/164 
f 207/1/201 168/1/165 167/1/164 
f 207/1/201 208/1/202 168/1/165 
f 208/1/202 169/1/166 168/1/165 
f 208/1/202 209/1/203 169/1/166 
f 209/1/203 170/1/167 169/1/166 
f 209/1/203 210/1/204 170/1/167 
f 210/1/204 171/1/168 170/1/167 
f 210/1/204 211/1/205 171/1/168 
f 211/1/205 172/1/169 171/1/168 
f 211/1/205 212/1/206 172/1/169 
f 212/1/206 173/1/170 172/1/169 
f 212/1/206 213/1/207 173/1/170 
f 213/1/207 174/1/171 173/1/170 
f 213/1/207 214/1/208 174/1/171 
f 214/1/208 175/1/172 174/1/171 
f 214/1/208 215/1/209 175/1/172 
f 215/1/209 176/1/173 175/1/172 
f 215/1/209 216/1/210 176/1/173 
f 216/1/210 177/1/174 176/1/173 
f 177/1/174 216/1/210 217/1/211 
f 178/1/175 177/1/174 217/1/211 
f 178/1/175 217/1/211 218/1/212 
f 178/1/175 218/1/212 179/1/176 
f 179/1/176 218/1/212 219/1/213 
f 179/1/176 219/1/213 180/1/177 
f 219/1/213 220/1/214 180/1/177 
f 180/1/177 220/1/214 181/1/178 
f 220/1/214 221/1/215 181/1/178 
f 221/1/215 182/1/179 181/1/178 
f 182/1/179 221/1/215 222/1/216 
f 222/1/216 183/1/180 182/1/179 
f 222/1/216 223/1/217 183/1/180 
f 223/1/217 184/1/181 183/1/180 
f 223/1/217 224/1/218 184/1/181 
f 224/1/218 185/1/182 184/1/181 
f 224/1/218 225/1/219 185/1/182 
f 225/1/219 186/1/183 185/1/182 
f 225/1/219 226/1/220 186/1/183 
f 226/1/220 187/1/184 186/1/183 
f 226/1/220 227/1/221 187/1/184 
f 227/1/221 188/1/185 187/1/184 
f 227/1/221 228/1/222 188/1/185 
f 188/1/185 228/1/222 189/1/186 
f 189/1/186 228/1/222 229/1/223 
f 229/1/223 190/1/187 189/1/186 
f 229/1/223 230/1/224 190/1/187 
f 230/1/224 191/1/188 190/1/187 
f 230/1/224 231/1/225 191/1/188 
f 231/1/225 192/1/189 191/1/188 
f 231/1/225 232/1/226 192/1/189 
f 232/1/226 193/1/190 192/1/189 
f 232/1/226 233/1/227 193/1/190 
f 193/1/190 233/1/227 194/1/191 
f 233/1/227 234/1/228 194/1/191 
f 234/1/228 195/1/192 194/1/191 
f 234/1/228 235/1/229 195/1/192 
f 235/1/229 196/1/193 195/1/192 
f 235/1/229 236/1/230 196/1/193 
f 236/1/230 197/1/194 196/1/193 
f 236/1/230 237/1/231 197/1/194 
f 237/1/231 198/1/195 197/1/194 
f 237/1/231 238/1/232 198/1/195 
f 238/1/232 199/1/196 198/1/195 
f 238/1/232 239/1/233 199/1/196 
f 239/1/233 200/1/197 199/1/196 
f 239/1/233 240/1/234 200/1/197 
f 240/1/234 201/1/198 200/1/197 
f 240/1/234 241/1/235 201/1/198 
f 241/1/235 202/1/199 201/1/198 
f 241/1/235 242/1/83 202/1/199 
f 242/1/83 203/1/83 202/1/199 
f 242/1/83 243/1/83 203/1/83 
f 244/1/83 205/1/83 204/1/83 
f 244/1/83 245/1/83 205/1/83 
f 245/1/83 206/1/200 205/1/83 
f 245/1/83 246/1/236 206/1/200 
f 246/1/236 207/1/201 206/1/200 
f 246/1/236 247/1/237 207/1/201 
f 247/1/237 208/1/202 207/1/201 
f 247/1/237 248/1/238 208/1/202 
f 248/1/238 209/1/203 208/1/202 
f 248/1/238 249/1/239 209/1/203 
f 249/1/239 210/1/204 209/1/203 
f 249/1/239 250/1/240 210/1/204 
f 250/1/240 211/1/205 210/1/204 
f 250/1/240 251/1/241 211/1/205 
f 251/1/241 212/1/206 211/1/205 
f 251/1/241 252/1/242 212/1/206 
f 252/1/242 213/1/207 212/1/206 
f 252/1/242 253/1/243 213/1/207 
f 253/1/243 214/1/208 213/1/207 
f 253/1/243 254/1/244 214/1/208 
f 254/1/244 215/1/209 214/1/208 
f 254/1/244 255/1/245 215/1/209 
f 255/1/245 216/1/210 215/1/209 
f 255/1/245 256/1/246 216/1/210 
f 256/1/246 217/1/211 216/1/210 
f 256/1/246 257/1/247 217/1/211 
f 257/1/247 218/1/212 217/1/211 
f 218/1/212 257/1/247 258/1/248 
f 218/1/212 258/1/248 219/1/213 
f 258/1/248 259/1/249 219/1/213 
f 259/1/249 220/1/214 219/1/213 
f 259/1/249 260/1/250 220/1/214 
f 260/1/250 221/1/215 220/1/214 
f 260/1/250 261/1/251 221/1/215 
f 221/1/215 261/1/251 222/1/216 
f 261/1/251 262/1/252 222/1/216 
f 262/1/252 223/1/217 222/1/216 
f 262/1/252 263/1/253 223/1/217 
f 263/1/253 224/1/218 223/1/217 
f 263/1/253 264/1/254 224/1/218 
f 264/1/254 225/1/219 224/1/218 
f 264/1/254 265/1/255 225/1/219 
f 265/1/255 226/1/220 225/1/219 
f 265/1/255 266/1/256 226/1/220 
f 266/1/256 227/1/221 226/1/220 
f 266/1/256 267/1/257 227/1/221 
f 267/1/257 228/1/222 227/1/221 
f 267/1/257 268/1/258 228/1/222 
f 228/1/222 268/1/258 229/1/223 
f 229/1/223 268/1/258 269/1/259 
f 269/1/259 230/1/224 229/1/223 
f 269/1/259 270/1/260 230/1/224 
f 270/1/260 231/1/225 230/1/224 
f 270/1/260 271/1/261 231/1/225 
f 271/1/261 232/1/226 231/1/225 
f 271/1/261 272/1/262 232/1/226 
f 272/1/262 233/1/227 232/1/226 
f 272/1/262 273/1/263 233/1/227 
f 273/1/263 234/1/228 233/1/227 
f 273/1/263 274/1/264 234/1/228 
f 274/1/264 235/1/229 234/1/228 
f 274/1/264 275/1/265 235/1/229 
f 275/1/265 236/1/230 235/1/229 
f 275/1/265 276/1/266 236/1/230 
f 276/1/266 237/1/231 236/1/230 
f 276/1/266 277/1/267 237/1/231 
f 277/1/267 238/1/232 237/1/231 
f 277/1/267 278/1/268 238/1/232 
f 278/1/268 239/1/233 238/1/232 
f 278/1/268 279/1/269 239/1/233 
f 279/1/269 240/1/234 239/1/233 
f 279/1/269 280/1/270 240/1/234 
f 280/1/270 241/1/235 240/1/234 
f 280/1/270 281/1/83 241/1/235 
f 281/1/83 242/1/83 241/1/235 
f 281/1/83 282/1/83 242/1/83 
f 282/1/83 243/1/83 242/1/83 
f 282/1/83 283/1/83 243/1/83 
f 284/1/83 245/1/83 244/1/83 
f 284/1/83 285/1/83 245/1/83 
f 285/1/83 246/1/236 245/1/83 
f 285/1/83 286/1/271 246/1/236 
f 286/1/271 247/1/237 246/1/236 
f 286/1/271 287/1/272 247/1/237 
f 287/1/272 248/1/238 247/1/237 
f 287/1/272 288/1/273 248/1/238 
f 288/1/273 249/1/239 248/1/238 
f 288/1/273 289/1/274 249/1/239 
f 289/1/274 250/1/240 249/1/239 
f 289/1/274 290/1/275 250/1/240 
f 290/1/275 251/1/241 250/1/240 
f 290/1/275 291/1/276 251/1/241 
f 291/1/276 252/1/242 251/1/241 
f 291/1/276 292/1/277 252/1/242 
f 292/1/277 253/1/243 252/1/242 
f 292/1/277 293/1/278 253/1/243 
f 293/1/278 254/1/244 253/1/243 
f 293/1/278 294/1/279 254/1/244 
f 294/1/279 255/1/245 254/1/244 
f 294/1/279 295/1/280 255/1/245 
f 295/1/280 256/1/246 255/1/245 
f 295/1/280 296/1/281 256/1/246 
f 296/1/281 257/1/247 256/1/246 
f 296/1/281 297/1/282 257/1/247 
f 297/1/282 258/1/248 257/1/247 
f 297/1/282 298/1/283 258/1/248 
f 298/1/283 259/1/249 258/1/248 
f 298/1/283 299/1/284 259/1/249 
f 299/1/284 260/1/250 259/1/249 
f 299/1/284 300/1/285 260/1/250 
f 300/1/285 261/1/251 260/1/250 
f 300/1/285 301/1/286 261/1/251 
f 301/1/286 262/1/252 261/1/251 
f 301/1/286 302/1/287 262/1/252 
f 302/1/287 263/1/253 262/1/252 
f 302/1/287 303/1/288 263/1/253 
f 303/1/288 264/1/254 263/1/253 
f 303/1/288 304/1/289 264/1/254 
f 304/1/289 265/1/255 264/1/254 
f 304/1/289 305/1/290 265/1/255 
f 305/1/290 266/1/256 265/1/255 
f 305/1/290 306/1/291 266/1/256 
f 306/1/291 267/1/257 266/1/256 
f 306/1/291 307/1/292 267/1/257 
f 307/1/292 268/1/258 267/1/257 
f 307/1/292 308/1/293 268/1/258 
f 268/1/258 308/1/293 269/1/259 
f 308/1/293 309/1/294 269/1/259 
f 309/1/294 270/1/260 269/1/259 
f 309/1/294 310/1/295 270/1/260 
f 310/1/295 271/1/261 270/1/260 
f 310/1/295 311/1/296 271/1/261 
f 311/1/296 272/1/262 271/1/261 
f 311/1/296 312/1/297 272/1/262 
f 312/1/297 273/1/263 272/1/262 
f 312/1/297 313/1/298 273/1/263 
f 313/1/298 274/1/264 273/1/263 
f 313/1/298 314/1/299 274/1/264 
f 314/1/299 275/1/265 274/1/264 
f 314/1/299 315/1/300 275/1/265 
f 315/1/300 276/1/266 275/1/265 
f 315/1/300 316/1/301 276/1/266 
f 316/1/301 277/1/267 276/1/266 
f 316/1/301 317/1/302 277/1/267 
f 317/1/302 278/1/268 277/1/267 
f 317/1/302 318/1/303 278/1/268 
f 318/1/303 279/1/269 278/1/268 
f 318/1/303 319/1/304 279/1/269 
f 319/1/304 280/1/270 279/1/269 
f 319/1/304 320/1/83 280/1/270 
f 320/1/83 281/1/83 280/1/270 
f 320/1/83 321/1/83 281/1/83 
f 321/1/83 282/1/83 281/1/83 
f 321/1/83 322/1/83 282/1/83 
f 322/1/83 283/1/83 282/1/83 
f 322/1/83 323/1/83 283/1/83 
f 324/1/83 285/1/83 284/1/83 
f 324/1/83 325/1/83 285/1/83 
f 325/1/83 286/1/271 285/1/83 
f 325/1/83 326/1/83 286/1/271 
f 326/1/83 287/1/272 286/1/271 
f 326/1/83 327/1/305 287/1/272 
f 327/1/305 288/1/273 287/1/272 
f 327/1/305 328/1/306 288/1/273 
f 328/1/306 289/1/274 288/1/273 
f 328/1/306 329/1/307 289/1/274 
f 329/1/307 290/1/275 289/1/274 
f 329/1/307 330/1/308 290/1/275 
f 330/1/308 291/1/276 290/1/275 
f 330/1/308 331/1/309 291/1/276 
f 331/1/309 292/1/277 291/1/276 
f 331/1/309 332/1/310 292/1/277 
f 332/1/310 293/1/278 292/1/277 
f 332/1/310 333/1/311 293/1/278 
f 333/1/311 294/1/279 293/1/278 
f 333/1/311 334/1/312 294/1/279 
f 334/1/312 295/1/280 294/1/279 
f 334/1/312 335/1/313 295/1/280 
f 335/1/313 296/1/281 295/1/280 
f 335/1/313 336/1/314 296/1/281 
f 336/1/314 297/1/282 296/1/281 
f 336/1/314 337/1/315 297/1/282 
f 337/1/315 298/1/283 297/1/282 
f 337/1/315 338/1/83 298/1/283 
f 338/1/83 299/1/284 298/1/283 
f 338/1/83 339/1/83 299/1/284 
f 339/1/83 300/1/285 299/1/284 
f 339/1/83 340/1/316 300/1/285 
f 340/1/316 301/1/286 300/1/285 
f 340/1/316 341/1/317 301/1/286 
f 341/1/317 302/1/287 301/1/286 
f 341/1/317 342/1/318 302/1/287 
f 342/1/318 303/1/288 302/1/287 
f 342/1/318 343/1/319 303/1/288 
f 343/1/319 304/1/289 303/1/288 
f 343/1/319 344/1/320 304/1/289 
f 344/1/320 305/1/290 304/1/289 
f 344/1/320 345/1/321 305/1/290 
f 345/1/321 306/1/291 305/1/290 
f 345/1/321 346/1/322 306/1/291 
f 346/1/322 307/1/292 306/1/291 
f 346/1/322 347/1/323 307/1/292 
f 347/1/323 308/1/293 307/1/292 
f 347/1/323 348/1/324 308/1/293 
f 348/1/324 309/1/294 308/1/293 
f 348/1/324 349/1/325 309/1/294 
f 349/1/325 310/1/295 309/1/294 
f 349/1/325 350/1/326 310/1/295 
f 350/1/326 311/1/296 310/1/295 
f 350/1/326 351/1/327 311/1/296 
f 351/1/327 312/1/297 311/1/296 
f 351/1/327 352/1/328 312/1/297 
f 352/1/328 313/1/298 312/1/297 
f 352/1/328 353/1/329 313/1/298 
f 353/1/329 314/1/299 313/1/298 
f 354/1/83 355/1/83 322/1/83 
f 354/1/83 322/1/83 321/1/83 
f 356/1/83 354/1/83 321/1/83 
f 356/1/83 321/1/83 320/1/83 
f 357/1/83 356/1/83 320/1/83 
f 357/1/83 320/1/83 319/1/304 
f 358/1/330 357/1/83 319/1/304 
f 358/1/330 319/1/304 318/1/303 
f 359/1/331 358/1/330 318/1/303 
f 359/1/331 318/1/303 317/1/302 
f 360/1/332 359/1/331 317/1/302 
f 360/1/332 317/1/302 316/1/301 
f 361/1/333 360/1/332 316/1/301 
f 361/1/333 316/1/301 315/1/300 
f 362/1/334 361/1/333 315/1/300 
f 362/1/334 315/1/300 314/1/299 
f 355/1/83 363/1/83 323/1/83 
f 355/1/83 323/1/83 322/1/83 
f 76/1/76 78/1/78 364/1/335 
f 78/1/78 365/1/336 364/1/335 
f 76/1/76 364/1/335 366/1/337 
f 74/1/74 76/1/76 366/1/337 
f 1/1/1 3/1/3 365/1/336 
f 78/1/78 1/1/1 365/1/336 
f 74/1/74 366/1/337 367/1/338 
f 72/1/72 74/1/74 367/1/338 
f 72/1/72 367/1/338 368/1/339 
f 70/1/70 72/1/72 368/1/339 
f 70/1/70 368/1/339 369/1/340 
f 62/1/62 370/1/341 371/1/342 
f 64/1/64 66/1/66 372/1/343 
f 62/1/62 64/1/64 370/1/341 
f 353/1/329 362/1/334 314/1/299 
f 66/1/66 373/1/344 372/1/343 
f 68/1/68 70/1/70 369/1/340 
f 68/1/68 369/1/340 373/1/344 
f 64/1/64 372/1/343 370/1/341 
f 66/1/66 68/1/68 373/1/344 
f 60/1/60 371/1/342 374/1/345 
f 60/1/60 62/1/62 371/1/342 
f 58/1/58 60/1/60 374/1/345 
f 58/1/58 374/1/345 375/1/346 
f 56/1/56 58/1/58 375/1/346 
f 56/1/56 375/1/346 376/1/347 
f 54/1/54 56/1/56 376/1/347 
f 54/1/54 376/1/347 377/1/348 
f 52/1/52 54/1/54 377/1/348 
f 52/1/52 377/1/348 378/1/349 
f 378/1/349 50/1/50 52/1/52 
f 378/1/349 379/1/350 50/1/50 
f 379/1/350 48/1/48 50/1/50 
f 379/1/350 380/1/351 48/1/48 
f 380/1/351 46/1/46 48/1/48 
f 46/1/46 380/1/351 381/1/352 
f 44/1/44 46/1/46 381/1/352 
f 44/1/44 381/1/352 382/1/353 
f 42/1/42 44/1/44 382/1/353 
f 383/1/354 42/1/42 382/1/353 
f 383/1/354 40/1/40 42/1/42 
f 384/1/355 40/1/40 383/1/354 
f 384/1/355 38/1/38 40/1/40 
f 38/1/38 384/1/355 385/1/356 
f 36/1/36 38/1/38 385/1/356 
f 36/1/36 385/1/356 386/1/357 
f 34/1/34 36/1/36 386/1/357 
f 34/1/34 386/1/357 387/1/358 
f 32/1/32 34/1/34 387/1/358 
f 32/1/32 387/1/358 388/1/359 
f 30/1/30 32/1/32 388/1/359 
f 30/1/30 388/1/359 389/1/360 
f 28/1/28 30/1/30 389/1/360 
f 28/1/28 389/1/360 390/1/83 
f 26/1/26 28/1/28 390/1/83 
f 26/1/26 390/1/83 391/1/361 
f 24/1/24 26/1/26 391/1/361 
f 24/1/24 391/1/361 392/1/362 
f 22/1/22 24/1/24 392/1/362 
f 22/1/22 392/1/362 393/1/363 
f 20/1/20 22/1/22 393/1/363 
f 20/1/20 393/1/363 394/1/364 
f 18/1/18 20/1/20 394/1/364 
f 18/1/18 394/1/364 395/1/365 
f 16/1/16 18/1/18 395/1/365 
f 16/1/16 395/1/365 396/1/366 
f 14/1/14 16/1/16 396/1/366 
f 14/1/14 396/1/366 397/1/367 
f 12/1/12 14/1/14 397/1/367 
f 12/1/12 397/1/367 398/1/368 
f 9/1/9 12/1/12 398/1/368 
f 9/1/9 398/1/368 399/1/369 
f 10/1/10 9/1/9 399/1/369 
f 10/1/10 399/1/369 400/1/83 
f 4/1/4 6/1/6 401/1/370 
f 4/1/4 401/1/370 402/1/371 
f 3/1/3 4/1/4 402/1/371 
f 3/1/3 402/1/371 403/1/372 
f 365/1/336 3/1/3 403/1/372 
f 365/1/336 403/1/372 404/1/373 
f 364/1/335 365/1/336 404/1/373 
f 364/1/335 404/1/373 405/1/374 
f 366/1/337 364/1/335 405/1/374 
f 366/1/337 405/1/374 406/1/375 
f 367/1/338 366/1/337 406/1/375 
f 367/1/338 406/1/375 407/1/376 
f 368/1/339 367/1/338 407/1/376 
f 368/1/339 407/1/376 408/1/377 
f 369/1/340 368/1/339 408/1/377 
f 369/1/340 408/1/377 409/1/378 
f 373/1/344 369/1/340 409/1/378 
f 373/1/344 409/1/378 410/1/379 
f 372/1/343 373/1/344 410/1/379 
f 372/1/343 410/1/379 411/1/380 
f 370/1/341 372/1/343 411/1/380 
f 370/1/341 411/1/380 412/1/381 
f 371/1/342 370/1/341 412/1/381 
f 371/1/342 412/1/381 413/1/382 
f 374/1/345 371/1/342 413/1/382 
f 374/1/345 413/1/382 414/1/383 
f 375/1/346 374/1/345 414/1/383 
f 375/1/346 414/1/383 415/1/384 
f 376/1/347 375/1/346 415/1/384 
f 376/1/347 415/1/384 416/1/385 
f 377/1/348 376/1/347 416/1/385 
f 377/1/348 416/1/385 417/1/386 
f 378/1/349 377/1/348 417/1/386 
f 378/1/349 417/1/386 418/1/387 
f 379/1/350 378/1/349 418/1/387 
f 379/1/350 418/1/387 419/1/388 
f 380/1/351 379/1/350 419/1/388 
f 380/1/351 419/1/388 420/1/389 
f 381/1/352 380/1/351 420/1/389 
f 420/1/389 421/1/390 381/1/352 
f 421/1/390 382/1/353 381/1/352 
f 382/1/353 421/1/390 422/1/391 
f 383/1/354 382/1/353 422/1/391 
f 383/1/354 422/1/391 423/1/392 
f 384/1/355 383/1/354 423/1/392 
f 384/1/355 423/1/392 424/1/393 
f 385/1/356 384/1/355 424/1/393 
f 385/1/356 424/1/393 425/1/394 
f 386/1/357 385/1/356 425/1/394 
f 386/1/357 425/1/394 426/1/395 
f 387/1/358 386/1/357 426/1/395 
f 387/1/358 426/1/395 427/1/396 
f 388/1/359 387/1/358 427/1/396 
f 388/1/359 427/1/396 428/1/397 
f 389/1/360 388/1/359 428/1/397 
f 389/1/360 428/1/397 429/1/398 
f 390/1/83 389/1/360 429/1/398 
f 390/1/83 429/1/398 430/1/83 
f 391/1/361 390/1/83 430/1/83 
f 391/1/361 430/1/83 431/1/399 
f 392/1/362 391/1/361 431/1/399 
f 392/1/362 431/1/399 432/1/400 
f 393/1/363 392/1/362 432/1/400 
f 393/1/363 432/1/400 433/1/401 
f 394/1/364 393/1/363 433/1/401 
f 394/1/364 433/1/401 434/1/402 
f 395/1/365 394/1/364 434/1/402 
f 395/1/365 434/1/402 435/1/403 
f 396/1/366 395/1/365 435/1/403 
f 396/1/366 435/1/403 436/1/404 
f 397/1/367 396/1/366 436/1/404 
f 397/1/367 436/1/404 437/1/405 
f 398/1/368 397/1/367 437/1/405 
f 398/1/368 437/1/405 438/1/406 
f 399/1/369 398/1/368 438/1/406 
f 399/1/369 438/1/406 439/1/83 
f 400/1/83 399/1/369 439/1/83 
f 400/1/83 439/1/83 440/1/83 
f 402/1/371 401/1/370 441/1/407 
f 402/1/371 441/1/407 442/1/408 
f 403/1/372 402/1/371 442/1/408 
f 403/1/372 442/1/408 443/1/409 
f 404/1/373 403/1/372 443/1/409 
f 404/1/373 443/1/409 444/1/410 
f 405/1/374 404/1/373 444/1/410 
f 405/1/374 444/1/410 445/1/411 
f 406/1/375 405/1/374 445/1/411 
f 406/1/375 445/1/411 446/1/412 
f 407/1/376 406/1/375 446/1/412 
f 407/1/376 446/1/412 447/1/413 
f 408/1/377 407/1/376 447/1/413 
f 408/1/377 447/1/413 448/1/414 
f 409/1/378 408/1/377 448/1/414 
f 409/1/378 448/1/414 449/1/415 
f 410/1/379 409/1/378 449/1/415 
f 410/1/379 449/1/415 450/1/416 
f 411/1/380 410/1/379 450/1/416 
f 411/1/380 450/1/416 451/1/417 
f 412/1/381 411/1/380 451/1/417 
f 412/1/381 451/1/417 452/1/418 
f 413/1/382 412/1/381 452/1/418 
f 413/1/382 452/1/418 453/1/419 
f 414/1/383 413/1/382 453/1/419 
f 414/1/383 453/1/419 454/1/420 
f 415/1/384 414/1/383 454/1/420 
f 415/1/384 454/1/420 455/1/421 
f 416/1/385 415/1/384 455/1/421 
f 416/1/385 455/1/421 456/1/422 
f 417/1/386 416/1/385 456/1/422 
f 417/1/386 456/1/422 457/1/423 
f 418/1/387 417/1/386 457/1/423 
f 418/1/387 457/1/423 458/1/424 
f 419/1/388 418/1/387 458/1/424 
f 419/1/388 458/1/424 459/1/425 
f 420/1/389 419/1/388 459/1/425 
f 420/1/389 459/1/425 460/1/426 
f 421/1/390 420/1/389 460/1/426 
f 421/1/390 460/1/426 461/1/427 
f 422/1/391 421/1/390 461/1/427 
f 422/1/391 461/1/427 462/1/428 
f 423/1/392 422/1/391 462/1/428 
f 423/1/392 462/1/428 463/1/429 
f 424/1/393 423/1/392 463/1/429 
f 424/1/393 463/1/429 464/1/430 
f 425/1/394 424/1/393 464/1/430 
f 425/1/394 464/1/430 465/1/431 
f 426/1/395 425/1/394 465/1/431 
f 426/1/395 465/1/431 466/1/432 
f 427/1/396 426/1/395 466/1/432 
f 427/1/396 466/1/432 467/1/433 
f 428/1/397 427/1/396 467/1/433 
f 428/1/397 467/1/433 468/1/434 
f 429/1/398 428/1/397 468/1/434 
f 429/1/398 468/1/434 469/1/435 
f 430/1/83 429/1/398 469/1/435 
f 430/1/83 469/1/435 470/1/83 
f 431/1/399 430/1/83 470/1/83 
f 431/1/399 470/1/83 471/1/83 
f 432/1/400 431/1/399 471/1/83 
f 432/1/400 471/1/83 472/1/436 
f 433/1/401 432/1/400 472/1/436 
f 433/1/401 472/1/436 473/1/437 
f 434/1/402 433/1/401 473/1/437 
f 434/1/402 473/1/437 474/1/438 
f 435/1/403 434/1/402 474/1/438 
f 435/1/403 474/1/438 475/1/439 
f 436/1/404 435/1/403 475/1/439 
f 436/1/404 475/1/439 476/1/440 
f 437/1/405 436/1/404 476/1/440 
f 437/1/405 476/1/440 477/1/441 
f 438/1/406 437/1/405 477/1/441 
f 438/1/406 477/1/441 478/1/83 
f 439/1/83 438/1/406 478/1/83 
f 439/1/83 478/1/83 479/1/83 
f 440/1/83 439/1/83 479/1/83 
f 440/1/83 479/1/83 480/1/83 
f 442/1/408 441/1/407 481/1/83 
f 442/1/408 481/1/83 482/1/442 
f 443/1/409 442/1/408 482/1/442 
f 443/1/409 482/1/442 483/1/443 
f 444/1/410 443/1/409 483/1/443 
f 444/1/410 483/1/443 484/1/444 
f 445/1/411 444/1/410 484/1/444 
f 445/1/411 484/1/444 485/1/445 
f 446/1/412 445/1/411 485/1/445 
f 446/1/412 485/1/445 486/1/446 
f 447/1/413 446/1/412 486/1/446 
f 447/1/413 486/1/446 487/1/447 
f 448/1/414 447/1/413 487/1/447 
f 448/1/414 487/1/447 488/1/83 
f 449/1/415 448/1/414 488/1/83 
f 449/1/415 488/1/83 489/1/83 
f 450/1/416 449/1/415 489/1/83 
f 450/1/416 489/1/83 490/1/83 
f 451/1/417 450/1/416 490/1/83 
f 451/1/417 490/1/83 491/1/448 
f 452/1/418 451/1/417 491/1/448 
f 452/1/418 491/1/448 492/1/449 
f 453/1/419 452/1/418 492/1/449 
f 453/1/419 492/1/449 493/1/450 
f 454/1/420 453/1/419 493/1/450 
f 454/1/420 493/1/450 494/1/451 
f 455/1/421 454/1/420 494/1/451 
f 455/1/421 494/1/451 495/1/452 
f 456/1/422 455/1/421 495/1/452 
f 456/1/422 495/1/452 496/1/453 
f 457/1/423 456/1/422 496/1/453 
f 457/1/423 496/1/453 497/1/454 
f 458/1/424 457/1/423 497/1/454 
f 458/1/424 497/1/454 498/1/455 
f 459/1/425 458/1/424 498/1/455 
f 459/1/425 498/1/455 499/1/456 
f 460/1/426 459/1/425 499/1/456 
f 460/1/426 499/1/456 500/1/457 
f 461/1/427 460/1/426 500/1/457 
f 461/1/427 500/1/457 501/1/458 
f 462/1/428 461/1/427 501/1/458 
f 462/1/428 501/1/458 502/1/459 
f 463/1/429 462/1/428 502/1/459 
f 463/1/429 502/1/459 503/1/460 
f 464/1/430 463/1/429 503/1/460 
f 464/1/430 503/1/460 504/1/461 
f 465/1/431 464/1/430 504/1/461 
f 465/1/431 504/1/461 505/1/462 
f 466/1/432 465/1/431 505/1/462 
f 466/1/432 505/1/462 506/1/463 
f 467/1/433 466/1/432 506/1/463 
f 467/1/433 506/1/463 507/1/464 
f 468/1/434 467/1/433 507/1/464 
f 468/1/434 507/1/464 508/1/465 
f 469/1/435 468/1/434 508/1/465 
f 469/1/435 508/1/465 509/1/83 
f 470/1/83 469/1/435 509/1/83 
f 470/1/83 509/1/83 510/1/83 
f 471/1/83 470/1/83 510/1/83 
f 471/1/83 510/1/83 511/1/83 
f 472/1/436 471/1/83 511/1/83 
f 472/1/436 511/1/83 512/1/83 
f 473/1/437 472/1/436 512/1/83 
f 473/1/437 512/1/83 513/1/407 
f 474/1/438 473/1/437 513/1/407 
f 474/1/438 513/1/407 514/1/466 
f 475/1/439 474/1/438 514/1/466 
f 475/1/439 514/1/466 515/1/467 
f 476/1/440 475/1/439 515/1/467 
f 476/1/440 515/1/467 516/1/468 
f 477/1/441 476/1/440 516/1/468 
f 477/1/441 516/1/468 517/1/83 
f 478/1/83 477/1/441 517/1/83 
f 478/1/83 517/1/83 518/1/83 
f 479/1/83 478/1/83 518/1/83 
f 479/1/83 518/1/83 519/1/83 
f 480/1/83 479/1/83 519/1/83 
f 480/1/83 519/1/83 520/1/83 
f 521/1/469 522/1/470 523/1/471 524/1/472 
f 525/1/473 526/1/474 527/1/475 528/1/476 
f 523/1/471 522/1/470 525/1/473 528/1/476 
f 521/1/469 526/1/474 525/1/473 522/1/470 
f 521/1/469 524/1/472 527/1/475 526/1/474 
f 527/2/475 524/3/472 523/4/471 528/5/476 
# 6 polygons - 936 triangles

